<svg width="24" height="24" viewBox="0 0 24 24" fill="none" xmlns="http://www.w3.org/2000/svg">
<g clip-path="url(#clip0_90_3)">
<path d="M8.20301 6.98L9.00701 6.819V4H8.00701C5.22301 4 3.10101 4.771 1.69801 6.292C-0.189986 8.34 1.39438e-05 10.97 0.00601394 11V19C0.00601394 19.2652 0.111371 19.5196 0.298907 19.7071C0.486444 19.8946 0.740797 20 1.00601 20H8.00601C9.10901 20 10.006 19.103 10.006 18V11C10.006 10.7348 9.90066 10.4804 9.71312 10.2929C9.52558 10.1054 9.27123 10 9.00601 10H4.92701C4.94901 9.598 5.05001 9.088 5.35601 8.604C5.86501 7.803 6.82201 7.257 8.20301 6.98Z" fill="#4CAF93"/>
</g>
<g clip-path="url(#clip1_90_3)">
<path d="M22.203 6.98L23.007 6.819V4H22.007C19.223 4 17.101 4.771 15.698 6.292C13.81 8.34 14 10.97 14.006 11V19C14.006 19.2652 14.1114 19.5196 14.2989 19.7071C14.4864 19.8946 14.7408 20 15.006 20H22.006C23.109 20 24.006 19.103 24.006 18V11C24.006 10.7348 23.9007 10.4804 23.7131 10.2929C23.5256 10.1054 23.2712 10 23.006 10H18.927C18.949 9.598 19.05 9.088 19.356 8.604C19.865 7.803 20.822 7.257 22.203 6.98Z" fill="#4CAF93"/>
</g>
<defs>
<clipPath id="clip0_90_3">
<rect width="10" height="24" fill="white"/>
</clipPath>
<clipPath id="clip1_90_3">
<rect width="10" height="24" fill="white" transform="translate(14)"/>
</clipPath>
</defs>
</svg>
